<svg width="1423" height="164" viewBox="0 0 1423 164" fill="none" xmlns="http://www.w3.org/2000/svg">
<path d="M49.8045 163.989C26.7454 163.989 11.3727 154.595 0.910767 136.233L22.4752 120.22C28.667 131.749 36.9939 136.66 45.9613 136.66C59.8394 136.66 67.0987 129.187 67.0987 107.409V2.78941H98.6982V109.971C98.6982 139.649 83.7525 163.989 49.8045 163.989Z" fill="#231815" fill-opacity="0.1"/>
<path d="M176.065 163.989C134.217 163.989 105.394 132.603 105.394 81.361C105.394 29.9051 134.217 0.0137939 176.065 0.0137939C217.913 0.0137939 246.737 30.1186 246.737 81.361C246.737 132.603 217.913 163.989 176.065 163.989ZM176.065 136.66C199.551 136.66 214.497 115.095 214.497 81.361C214.497 47.4129 199.551 27.1295 176.065 27.1295C152.579 27.1295 137.634 47.4129 137.634 81.361C137.634 115.095 152.579 136.66 176.065 136.66Z" fill="#231815" fill-opacity="0.1"/>
<path d="M254.11 161V2.78941H306.42C338.873 2.78941 363.64 12.3973 363.64 41.8617C363.64 56.3803 355.527 71.326 342.076 76.0232V77.0908C359.157 81.1474 371.754 93.104 371.754 114.455C371.754 146.268 345.278 161 310.476 161H254.11ZM285.709 67.2693H304.071C324.141 67.2693 332.895 59.156 332.895 46.5589C332.895 32.6808 323.5 27.1295 304.498 27.1295H285.709V67.2693ZM285.709 136.66H307.701C329.265 136.66 341.008 128.974 341.008 112.533C341.008 97.1607 329.479 90.5419 307.701 90.5419H285.709V136.66Z" fill="#231815" fill-opacity="0.1"/>
<path d="M400.839 161V2.78941H455.925C489.019 2.78941 515.28 14.5324 515.28 50.8291C515.28 74.5286 503.324 89.2608 485.176 96.3066L522.113 161H486.884L454.43 101.217H432.439V161H400.839ZM432.439 76.2367H452.936C473.219 76.2367 484.535 67.6963 484.535 50.8291C484.535 33.7483 473.219 27.9835 452.936 27.9835H432.439V76.2367Z" fill="#231815" fill-opacity="0.1"/>
<path d="M522.89 161V2.78941H619.823V29.2646H554.49V65.7748H610.002V92.2499H554.49V134.525H622.172V161H522.89Z" fill="#231815" fill-opacity="0.1"/>
<path d="M630.763 161V2.78941H728.123V29.2646H662.362V70.472H718.515V96.9472H662.362V161H630.763Z" fill="#231815" fill-opacity="0.1"/>
<path d="M732.171 161V2.78941H829.105V29.2646H763.771V65.7748H819.283V92.2499H763.771V134.525H831.453V161H732.171Z" fill="#231815" fill-opacity="0.1"/>
<path d="M840.044 161V2.78941H895.129C928.223 2.78941 954.485 14.5324 954.485 50.8291C954.485 74.5286 942.528 89.2608 924.38 96.3066L961.317 161H926.088L893.635 101.217H871.643V161H840.044ZM871.643 76.2367H892.14C912.423 76.2367 923.739 67.6963 923.739 50.8291C923.739 33.7483 912.423 27.9835 892.14 27.9835H871.643V76.2367Z" fill="#231815" fill-opacity="0.1"/>
<path d="M962.094 161V2.78941H1059.03V29.2646H993.694V65.7748H1049.21V92.2499H993.694V134.525H1061.38V161H962.094Z" fill="#231815" fill-opacity="0.1"/>
<path d="M1069.97 161V2.78941H1102.21L1148.11 87.1257L1163.91 121.287H1164.98C1163.48 104.847 1160.92 83.9231 1160.92 65.9883V2.78941H1190.81V161H1158.79L1113.1 76.4502L1097.08 42.5022H1096.01C1097.51 59.583 1099.86 79.4394 1099.86 97.5877V161H1069.97Z" fill="#231815" fill-opacity="0.1"/>
<path d="M1270.88 163.989C1230.96 163.989 1198.5 135.379 1198.5 82.642C1198.5 30.5457 1232.03 0.0137939 1271.95 0.0137939C1292.02 0.0137939 1308.03 9.62172 1318.28 20.2972L1301.84 40.3671C1293.73 32.6808 1284.55 27.1295 1272.59 27.1295C1248.68 27.1295 1230.74 47.6264 1230.74 81.5745C1230.74 115.95 1246.97 136.66 1271.95 136.66C1285.62 136.66 1296.08 130.255 1304.62 121.074L1321.27 140.717C1308.25 155.876 1291.38 163.989 1270.88 163.989Z" fill="#231815" fill-opacity="0.1"/>
<path d="M1323.24 161V2.78941H1420.18V29.2646H1354.84V65.7748H1410.35V92.2499H1354.84V134.525H1422.52V161H1323.24Z" fill="#231815" fill-opacity="0.1"/>
</svg>
