<svg width="140" height="26" viewBox="0 0 140 26" fill="none" xmlns="http://www.w3.org/2000/svg">
<path d="M41.8569 7.07461C41.8569 6.8991 41.9278 6.83497 42.0729 6.8856C42.6602 7.06111 43.2543 7.24674 43.8584 7.43576C43.9698 7.45939 44.0846 7.50664 44.196 7.57415C44.3242 7.69228 44.3883 7.76654 44.3883 7.8003C44.3883 7.90831 44.3242 7.99268 44.196 8.05006C44.1116 8.07369 44.0306 8.10407 43.9462 8.13782C43.8247 8.17158 43.7437 8.27283 43.6964 8.43822C43.2509 10.3453 42.5522 12.0059 41.597 13.4168C41.5059 13.5518 41.5194 13.6159 41.6307 13.6159H42.3429L43.1901 13.6395C43.3116 13.6395 43.423 13.5585 43.5277 13.3999C43.7538 13.0657 43.9867 12.7316 44.2263 12.3974C44.331 12.2455 44.4457 12.2422 44.5639 12.3839C45.0094 12.8025 45.4178 13.248 45.7958 13.7273C45.9477 13.9028 45.9207 14.0243 45.7182 14.0918H36.9357C36.5307 14.1154 36.1223 14.1424 35.7172 14.1661C35.5654 14.183 35.4574 14.1121 35.3898 13.9534L35.3223 13.7644C35.2548 13.5889 35.292 13.5045 35.4337 13.5146C35.9906 13.5822 36.5881 13.6193 37.2294 13.626H40.7295C40.8511 13.626 40.9388 13.545 40.9996 13.3864C41.5329 11.6211 41.8198 9.73096 41.8569 7.71591V7.06449V7.07461ZM43.9226 4.67816C44.0272 4.62753 44.1521 4.68828 44.2938 4.85367C44.601 5.12032 44.9351 5.46798 45.2862 5.89326C45.4684 6.06878 45.5056 6.22404 45.3976 6.35905C45.3672 6.38268 45.276 6.39618 45.1275 6.39618H37.2463C36.8986 6.40293 36.5543 6.42656 36.2067 6.46031C36.0548 6.47718 35.9468 6.4063 35.8793 6.24766L35.8118 6.07215C35.7375 5.88989 35.7712 5.8055 35.913 5.82238C36.4767 5.88988 37.1484 5.92364 37.9213 5.92364H42.2552L42.8762 5.93714C42.9876 5.93714 43.1024 5.85613 43.2138 5.69749C43.4028 5.40384 43.5918 5.11357 43.7909 4.81992C43.8281 4.75241 43.8686 4.70854 43.9158 4.68154L43.9226 4.67816ZM37.6243 7.31088C37.7154 7.26025 37.8335 7.3075 37.9854 7.44926C38.8968 8.47873 39.5279 9.52844 39.8823 10.5984C40.0714 11.2161 40.0174 11.7527 39.7237 12.205C39.3862 12.6404 39.0216 12.789 38.6301 12.6573C38.3803 12.5561 38.2386 12.3941 38.2015 12.1679C38.1475 12.0093 38.1272 11.8338 38.1339 11.6414C38.1474 11.0878 38.134 10.514 38.0901 9.90985C38.0361 9.10653 37.8639 8.32009 37.5703 7.55053C37.5264 7.44927 37.5433 7.37163 37.6277 7.31088H37.6243ZM38.9575 3.29767C39.0115 3.22341 39.1094 3.18628 39.2512 3.18628C39.7338 3.1694 40.1962 3.27741 40.6384 3.51368C41.3607 3.95584 41.5835 4.57015 41.3033 5.35659C41.1515 5.66712 40.8983 5.83588 40.5372 5.86963C40.3346 5.87976 40.1659 5.84938 40.0309 5.78187C39.8891 5.67386 39.7912 5.51522 39.7372 5.30596C39.7001 5.14732 39.6697 4.98531 39.6461 4.81655C39.5786 4.45539 39.4537 4.12799 39.2748 3.82421C39.2309 3.75671 39.1735 3.68582 39.106 3.61157C38.9643 3.46981 38.9136 3.36518 38.9575 3.29767Z" fill="#0959A9"/>
<path d="M51.76 3.86463C51.9254 3.68237 52.1515 3.72287 52.4384 3.98952C52.7388 4.22241 52.9616 4.42831 53.1034 4.60382C53.2384 4.77934 53.2046 4.92447 53.0021 5.0426C52.8738 5.17761 52.8097 5.30925 52.8097 5.44426V9.43385L52.8536 11.3544C52.9143 11.5974 52.8232 11.7797 52.5836 11.9079C52.3338 12.0092 52.0266 12.0497 51.6587 12.0328C51.517 12.0261 51.409 11.9586 51.3415 11.8337C51.3347 11.7999 51.3313 11.6987 51.3313 11.5333C51.3313 11.351 51.2706 11.2565 51.1491 11.2565H50.5044C50.3829 11.2565 50.3221 11.324 50.3221 11.4556V11.8944C50.3221 12.0632 50.3154 12.1645 50.2985 12.2083C50.2377 12.3433 50.1601 12.421 50.0622 12.448C49.7247 12.5729 49.3737 12.61 49.0125 12.5594C48.8606 12.502 48.7864 12.4007 48.7864 12.259C48.8168 11.3645 48.8336 10.5544 48.8438 9.82538V5.92356C48.837 5.27213 48.81 4.6747 48.7661 4.13128C48.7425 3.96252 48.8066 3.89839 48.9585 3.93214C49.4479 4.0739 49.9306 4.24267 50.4031 4.43506H51.0816C51.2031 4.43506 51.3178 4.3608 51.4326 4.20891C51.5372 4.08402 51.6486 3.96926 51.76 3.87138V3.86463ZM50.5179 4.86709C50.3896 4.86709 50.3255 4.9346 50.3255 5.06623V7.26017C50.3255 7.39518 50.3863 7.45931 50.5078 7.45931H51.1525C51.274 7.45931 51.3347 7.3918 51.3347 7.26017V5.07636C51.3347 4.9346 51.274 4.86371 51.1525 4.86371H50.5213L50.5179 4.86709ZM50.5179 7.91497C50.3896 7.91497 50.3255 7.9791 50.3255 8.10399V10.5882C50.3255 10.73 50.3863 10.8008 50.5078 10.8008H51.1525C51.274 10.8008 51.3347 10.7333 51.3347 10.6017V8.11749C51.3347 7.98248 51.274 7.91835 51.1525 7.91835H50.5213L50.5179 7.91497ZM57.2448 3.39884C57.3495 3.29083 57.4575 3.27058 57.5722 3.33471C57.9098 3.54398 58.2304 3.787 58.5308 4.06377C58.7873 4.27304 58.8278 4.45531 58.6557 4.61395C58.3924 4.74896 58.2844 4.91434 58.3283 5.11686V13.1838C58.2979 13.5753 58.1325 13.8994 57.8321 14.1491C57.4642 14.409 57.0862 14.5575 56.7048 14.6014C56.5158 14.6284 56.4078 14.5204 56.3774 14.2875C56.347 14.1289 56.3099 13.9669 56.266 13.7981C56.2356 13.6563 56.1614 13.5382 56.0399 13.4471C55.8576 13.3053 55.5707 13.1703 55.169 13.0454C55.0273 12.9948 54.9631 12.9171 54.9766 12.8058C55.0003 12.6977 55.0813 12.6437 55.2264 12.6437C55.4357 12.6437 55.6551 12.6505 55.8812 12.6674H56.536C56.7622 12.7247 56.8567 12.6201 56.8195 12.3535L56.7959 10.4971C56.7892 10.3621 56.725 10.2979 56.6035 10.2979H55.2028C55.0813 10.2979 55.0104 10.3823 54.9868 10.5477C54.926 11.0506 54.7876 11.5468 54.5682 12.0396C54.2307 12.7686 53.6907 13.4099 52.9549 13.9702C52.4047 14.3786 51.8444 14.6723 51.274 14.8478C51.1221 14.8883 51.0174 14.8714 50.9567 14.7972C50.8892 14.7128 50.9364 14.6217 51.1018 14.5204C51.4258 14.2943 51.7431 14.0107 52.0503 13.6665C52.5329 13.0724 52.8806 12.4075 53.1 11.6717C53.3633 10.8346 53.5118 9.90301 53.5388 8.87355V4.91097C53.5253 4.47556 53.5016 4.11103 53.4713 3.82075C53.4476 3.63849 53.5084 3.56086 53.6535 3.59461C54.1261 3.7195 54.629 3.88826 55.1555 4.09753H56.455C56.5765 4.09753 56.6879 4.03002 56.7925 3.89839C56.9276 3.72287 57.0794 3.5541 57.2448 3.39546V3.39884ZM55.2703 7.30067C55.1589 7.30067 55.1015 7.37155 55.1015 7.51331V9.10645C55.0779 9.28871 55.0678 9.47773 55.0678 9.67012C55.061 9.82201 55.1117 9.89626 55.2264 9.89626H56.6137C56.7352 9.89626 56.7959 9.82876 56.7959 9.69712V7.51331C56.7959 7.37155 56.7352 7.30067 56.6137 7.30067H55.2703ZM55.2939 4.50257C55.1657 4.50257 55.1015 4.5667 55.1015 4.69158V6.68636C55.1015 6.82813 55.1623 6.89901 55.2838 6.89901H56.617C56.7385 6.89901 56.7993 6.8315 56.7993 6.69987V4.70508C56.7993 4.57006 56.7385 4.50593 56.617 4.50593H55.2973L55.2939 4.50257Z" fill="#0959A9"/>
<path d="M69.9055 3.73967C70.0405 3.57091 70.1722 3.55066 70.3004 3.67554C70.6785 3.93544 71.0734 4.31685 71.4852 4.81639C71.583 4.95815 71.5797 5.07966 71.475 5.18092C71.4379 5.21467 71.3434 5.23154 71.1915 5.23154H67.7487C67.6205 5.23154 67.5563 5.29906 67.5563 5.43069V12.9677C67.5563 13.1095 67.6171 13.1803 67.7386 13.1803H69.487C69.6085 13.1803 69.7233 13.096 69.838 12.9306C69.9595 12.7618 70.081 12.5964 70.2093 12.4276C70.4354 12.0935 70.6143 11.9484 70.7527 11.9889C71.1814 12.2825 71.6134 12.7011 72.0522 13.2445C72.1872 13.4267 72.1838 13.5719 72.0421 13.6698C72.0184 13.6765 71.9341 13.6833 71.7822 13.6833H62.9322C62.6217 13.69 62.3145 13.717 62.0074 13.7575C61.8555 13.7744 61.7508 13.6934 61.6901 13.5179C61.653 13.4335 61.6259 13.3559 61.6124 13.2782C61.5517 13.1027 61.6023 13.0285 61.761 13.0521C62.2267 13.1263 62.6993 13.1702 63.1718 13.177H65.6662C65.7877 13.177 65.8484 13.1095 65.8484 12.9778V5.42732C65.8484 5.2923 65.7877 5.22817 65.6662 5.22817H63.5667C63.2663 5.22817 62.9592 5.24505 62.652 5.2788C62.5001 5.29568 62.3989 5.22142 62.3483 5.05265L62.2571 4.82652C62.1964 4.65775 62.2504 4.58349 62.4158 4.60037C62.9356 4.66787 63.4216 4.70501 63.8705 4.71176H68.9841C69.0955 4.71176 69.2136 4.63412 69.3351 4.4721C69.5309 4.18858 69.7233 3.94218 69.9123 3.73292L69.9055 3.73967Z" fill="#0959A9"/>
<path d="M77.7463 3.32446C77.888 3.1827 77.969 3.11182 77.9825 3.11182C78.4348 3.47297 78.8264 3.82401 79.1571 4.16491C79.2786 4.29992 79.3293 4.28304 79.3158 4.11428L79.282 3.78687C79.2584 3.58773 79.3158 3.50673 79.4508 3.54723C79.947 3.716 80.4431 3.89151 80.9393 4.07377H82.7687C82.8902 4.07377 83.0218 4.00289 83.1636 3.86113C83.4032 3.62824 83.5923 3.48311 83.7273 3.43585C83.8184 3.43585 83.9298 3.48647 84.0648 3.58773C84.3348 3.76325 84.5576 3.93202 84.7297 4.09066C84.9795 4.28305 84.9964 4.48219 84.7871 4.69146C84.7196 4.76571 84.6487 4.84672 84.5745 4.9311C84.5373 4.9986 84.5171 5.09986 84.5171 5.23149C84.5238 5.96731 84.5407 6.69974 84.561 7.42543C84.5913 7.55031 84.5373 7.67521 84.4023 7.80347C84.2606 7.8946 84.0513 7.9486 83.7813 7.96548C83.6463 7.97223 83.6564 8.03636 83.815 8.15449C84.2066 8.47177 84.5002 8.74517 84.696 8.97131C84.8782 9.14008 84.9187 9.29872 84.8209 9.44723C84.7466 9.48773 84.6555 9.50123 84.5508 9.48435L84.3247 9.46072C84.2268 9.42697 84.1526 9.42023 84.0985 9.4371C83.6766 9.57887 83.2547 9.6835 82.8328 9.751C82.7113 9.76788 82.6506 9.84213 82.6506 9.97714V11.2564C82.6506 11.3914 82.6911 11.4555 82.7754 11.4555C82.8666 11.4555 82.9645 11.3711 83.0691 11.2057C83.302 10.8108 83.5248 10.5408 83.734 10.3889C84.058 10.5982 84.4361 10.9661 84.8749 11.4927C84.966 11.6007 84.9728 11.7154 84.8985 11.8302C84.8681 11.8471 84.7871 11.8538 84.6487 11.8538H82.8193C82.6978 11.8538 82.6371 11.9213 82.6371 12.0529V13.7845C82.6371 13.9195 82.7113 13.9904 82.8632 13.9971H83.0218C83.1433 14.0039 83.2547 13.9296 83.3594 13.771C83.4876 13.5381 83.6564 13.2849 83.8657 13.0183C83.977 12.7921 84.1323 12.7921 84.3281 13.0183C84.8242 13.4604 85.1651 13.8587 85.344 14.2098C85.3575 14.2773 85.344 14.3313 85.3001 14.3718C85.2698 14.4055 85.182 14.4224 85.0403 14.4224H79.8929C79.5385 14.4291 79.1841 14.446 78.8331 14.473C78.6508 14.4899 78.5327 14.4156 78.472 14.2469L78.4146 14.122C78.3471 13.9532 78.3876 13.879 78.5395 13.8959C78.9141 13.9532 79.3462 13.9937 79.8254 14.0072H80.9325C81.054 14.0072 81.1148 13.9397 81.1148 13.8081V12.0631C81.1148 11.9281 81.054 11.8639 80.9325 11.8639H80.0313C79.7444 11.8707 79.4643 11.8876 79.1841 11.9146C79.0322 11.9314 78.9209 11.8504 78.8466 11.6749L78.8027 11.55C78.7183 11.3745 78.7555 11.3003 78.904 11.3239C79.2888 11.3981 79.7039 11.442 80.1562 11.4488H80.9359C81.0574 11.4488 81.1182 11.3813 81.1182 11.2496V10.1223C81.1182 9.98728 81.0439 9.92315 80.892 9.92315L80.352 9.94677H79.471C79.3191 9.94001 79.2381 9.92652 79.2213 9.90964C79.2145 9.89277 79.1976 9.96702 79.1774 10.1358C79.066 10.5138 78.8297 10.6927 78.4787 10.6758C78.2289 10.686 78.0737 10.5644 78.0062 10.3113C77.969 10.1122 77.9758 9.92314 78.0298 9.74762C78.0973 9.37297 78.0872 9.05907 77.996 8.80593C77.9218 8.63716 77.8847 8.62703 77.8847 8.76879V12.8596L77.9083 14.4021C77.9454 14.6789 77.8138 14.8342 77.5134 14.8679C77.2197 14.9253 76.9463 14.9422 76.6898 14.9186C76.4805 14.8679 76.3995 14.7194 76.4535 14.4663C76.4535 14.0477 76.4569 13.6258 76.4637 13.2005V10.6421C76.4637 10.4902 76.4232 10.5071 76.3388 10.6927C76.0384 11.2699 75.6435 11.8167 75.154 12.3365C75.0022 12.4884 74.8975 12.5255 74.8368 12.4479C74.7693 12.3736 74.7726 12.2555 74.8469 12.0968C75.576 10.5509 76.0215 9.01857 76.1801 7.50644C76.1936 7.37143 76.143 7.3073 76.0215 7.3073C75.7886 7.31405 75.522 7.33093 75.2182 7.35793C75.0359 7.38156 74.9144 7.31067 74.8469 7.14528C74.8233 7.0879 74.8064 7.02715 74.7895 6.96977C74.722 6.81789 74.7794 6.75713 74.9583 6.78076C75.5591 6.86514 76.0012 6.89889 76.278 6.88201C76.3995 6.88201 76.4603 6.81451 76.4603 6.68287V5.37664C76.4603 5.24163 76.386 5.18087 76.2341 5.18762C75.8966 5.22138 75.5557 5.245 75.2182 5.26188C75.0663 5.26863 74.9752 5.22475 74.9347 5.12349C74.9043 5.01548 74.965 4.93447 75.1169 4.88384C76.1261 4.54969 77.0037 4.0299 77.7463 3.32784V3.32446ZM79.3495 7.43893C79.3495 7.31405 79.3428 7.25667 79.3259 7.26342C79.3023 7.29042 79.2179 7.30054 79.066 7.30054H78.0602C77.9387 7.30054 77.8779 7.36805 77.8779 7.49968V7.91485C77.8779 8.04986 77.9522 8.14775 78.104 8.21525C78.4416 8.36714 78.7251 8.60003 78.9512 8.91731C79.0255 9.04219 79.0896 9.18733 79.1436 9.35609C79.174 9.50798 79.255 9.57211 79.3934 9.55523C80.2811 9.38647 81.1688 9.1097 82.0565 8.71479C82.3805 8.5629 82.7451 8.36038 83.1501 8.10048C83.2716 8.0161 83.302 7.96548 83.2412 7.9486C83.1501 7.9486 83.0826 7.8811 83.0387 7.74946C83.032 7.67521 82.9746 7.63807 82.8699 7.63807H81.0304C80.9022 7.63807 80.838 7.70896 80.838 7.85072C80.8617 7.98573 80.838 8.09711 80.7705 8.18825C80.7401 8.23887 80.7064 8.27262 80.6693 8.2895C80.1967 8.45826 79.7816 8.47852 79.4272 8.35363C79.3293 8.27938 79.2955 8.17812 79.3259 8.05324L79.3495 7.43893ZM78.7183 4.65432C78.499 4.73871 78.2863 4.80959 78.0737 4.86697C77.9522 4.90072 77.8914 4.9851 77.8914 5.11674V6.65924C77.8914 6.79425 77.8982 6.86514 77.915 6.87189C77.9285 6.87189 77.9758 6.78751 78.05 6.62212C78.1783 6.30484 78.2863 6.06857 78.3774 5.92005C78.4821 5.70404 78.6171 5.72429 78.7825 5.98419C78.985 6.29471 79.1436 6.56474 79.255 6.80101C79.3225 6.94277 79.3563 6.92926 79.3563 6.76388V4.90747C79.3563 4.73871 79.3461 4.66108 79.3225 4.66783C79.2989 4.69145 79.2584 4.70495 79.1976 4.70495L78.8702 4.63069C78.8095 4.63069 78.7589 4.64082 78.7116 4.65432H78.7183ZM81.0439 4.50244C80.9157 4.50244 80.8515 4.56657 80.8515 4.69146V7.01364C80.8515 7.14865 80.9123 7.21279 81.0338 7.21279H82.8632C82.9847 7.21279 83.0455 7.14865 83.0455 7.02377V4.70158C83.0455 4.56657 82.9881 4.50244 82.8767 4.50244H81.0473H81.0439Z" fill="#0959A9"/>
<path d="M91.3723 3.38878C91.3858 3.21326 91.4702 3.14238 91.6221 3.17613C92.314 3.33477 92.9047 3.50354 93.3941 3.67906C93.6135 3.73644 93.6945 3.83094 93.6439 3.95582C93.5595 4.09084 93.4414 4.16847 93.2828 4.19548C93.1714 4.22923 93.0802 4.33048 93.0127 4.49587L92.844 4.94816C92.79 5.08317 92.8305 5.1473 92.9553 5.1473H95.9121C96.0336 5.1473 96.1551 5.06292 96.2834 4.89753C96.4724 4.65451 96.6715 4.40811 96.8808 4.15834C97.0394 4.03346 97.1913 4.01321 97.3432 4.09421C97.5761 4.2866 97.8596 4.56338 98.1904 4.92116C98.3794 5.13043 98.4807 5.29244 98.4942 5.41057C98.4942 5.46795 98.4638 5.51858 98.4031 5.56246C98.3794 5.57934 98.295 5.58609 98.1432 5.58609H92.7596C92.6381 5.58609 92.5436 5.6671 92.4761 5.82573C92.2938 6.2679 92.0744 6.70668 91.8111 7.14209C91.7267 7.28385 91.72 7.37161 91.7875 7.40536C91.8618 7.43912 91.9563 7.456 92.071 7.456H95.2202C95.3417 7.456 95.4767 7.38174 95.6252 7.22985C95.7771 7.08809 95.9256 6.95983 96.0775 6.8417C96.1517 6.77419 96.226 6.76069 96.2935 6.80456C96.6547 6.97333 97.0259 7.22648 97.4107 7.57076C97.5761 7.75303 97.5221 7.93528 97.2521 8.1108C97.1407 8.25256 97.0833 8.38757 97.0833 8.51246V13.3796C97.0529 13.8724 96.8201 14.2504 96.3846 14.507C95.9796 14.7567 95.5779 14.8715 95.1898 14.8445C95.1054 14.7871 95.0615 14.723 95.0548 14.6555C95.0176 14.4867 94.9873 14.3213 94.9636 14.1526C94.9029 13.9095 94.8286 13.7441 94.7375 13.6496C94.5181 13.4741 94.2751 13.3459 94.0051 13.2615C93.8532 13.221 93.7823 13.14 93.7924 13.0218C93.816 12.9037 93.9004 12.8497 94.0523 12.8598C94.3831 12.8835 94.7949 12.897 95.2843 12.897C95.4666 12.8902 95.5374 12.7754 95.4969 12.5594V11.8945C95.4969 11.7595 95.4362 11.6954 95.3147 11.6954H92.0305C91.9023 11.6954 91.8381 11.7629 91.8381 11.8945V12.8733L91.8618 14.0277C91.8685 14.1863 91.8685 14.3483 91.8618 14.5171C91.7942 14.6589 91.7031 14.7432 91.5917 14.7669C91.2846 14.885 90.9167 14.9255 90.4981 14.8918C90.2652 14.8749 90.1674 14.7466 90.2045 14.5036C90.218 13.8252 90.2382 13.14 90.2619 12.448V9.20102C90.2619 9.05926 90.2011 9.04913 90.0796 9.17739C89.6037 9.67018 89.0231 10.136 88.3312 10.568C88.1591 10.6693 88.0443 10.6794 87.9937 10.6051C87.9329 10.5039 87.9802 10.3756 88.1287 10.217C88.2705 10.0482 88.4021 9.88282 88.5236 9.71406C89.6003 8.20868 90.3429 6.89232 90.7479 5.7616C90.7918 5.62659 90.7547 5.56246 90.6365 5.56246H89.5632C89.1109 5.57934 88.716 5.60972 88.3785 5.65022C88.3177 5.67723 88.2738 5.67047 88.2434 5.63672C88.1692 5.48483 88.1017 5.33632 88.0409 5.18443C87.9802 5.03254 88.0376 4.97179 88.2097 4.99542C88.5405 5.04605 88.8746 5.0798 89.2155 5.09667C89.7353 5.09667 90.2619 5.11018 90.7952 5.13381C90.9167 5.14393 90.9977 5.0798 91.0449 4.94479C91.1968 4.50938 91.3082 3.99295 91.3825 3.38878H91.3723ZM92.0373 7.91841C91.909 7.91841 91.8449 7.98254 91.8449 8.10743V9.10989C91.8449 9.25165 91.9056 9.32253 92.0271 9.32253H95.3248C95.4463 9.32253 95.5071 9.25502 95.5071 9.12338V8.12092C95.5071 7.98591 95.4463 7.92178 95.3248 7.92178H92.0406L92.0373 7.91841ZM92.0271 9.73769C91.9056 9.73769 91.8449 9.80519 91.8449 9.93683V11.0777C91.8449 11.2127 91.9056 11.2768 92.0271 11.2768H95.3248C95.4463 11.2768 95.5071 11.2093 95.5071 11.0777V9.95033C95.5071 9.80857 95.4463 9.73769 95.3248 9.73769H92.0271Z" fill="#0959A9"/>
<path d="M104.158 3.77687C104.458 3.42584 104.674 3.29758 104.803 3.38871C105.073 3.5406 105.373 3.78025 105.707 4.11778C105.812 4.26966 105.859 4.26291 105.842 4.10427L105.808 3.79037C105.795 3.62161 105.862 3.55748 106.011 3.59123C106.477 3.72624 106.959 3.88826 107.456 4.08065H109.295C109.406 4.08065 109.538 4.00639 109.69 3.8545C109.842 3.70262 109.99 3.57436 110.142 3.46635C110.264 3.39884 110.446 3.46635 110.696 3.66549C110.848 3.76675 110.996 3.87813 111.148 4.00302C111.374 4.18866 111.459 4.35066 111.408 4.49243C111.384 4.52618 111.354 4.56331 111.317 4.60382C111.273 4.62744 111.206 4.70507 111.114 4.82996C111.084 4.89746 111.07 4.99872 111.07 5.13036V7.21291L111.114 8.78242C111.091 8.88368 111.04 8.95793 110.956 9.00856C110.797 9.08281 110.571 9.13007 110.277 9.14695C110.142 9.1537 110.146 9.19757 110.287 9.27183C110.807 9.53848 111.249 9.82537 111.621 10.1258C111.705 10.2507 111.675 10.3587 111.53 10.4532C111.455 10.4701 111.378 10.4734 111.303 10.4667C111.229 10.4431 111.155 10.4667 111.087 10.5409C110.672 10.9021 110.166 11.1856 109.562 11.3949C109.427 11.4455 109.41 11.5231 109.518 11.6345C110.196 12.2623 110.881 12.6809 111.573 12.8901C111.715 12.9306 111.779 13.0015 111.766 13.1028C111.742 13.204 111.695 13.2715 111.621 13.3019C111.418 13.4201 111.283 13.6057 111.216 13.8656C111.162 14.0985 111.124 14.3516 111.104 14.6183C111.081 14.787 111.003 14.8748 110.868 14.8816C110.463 14.7972 109.99 14.409 109.457 13.7137C109.194 13.3863 108.971 13.0488 108.792 12.6977C108.738 12.5897 108.718 12.5695 108.725 12.6336C108.748 12.7079 108.684 12.8057 108.532 12.9205C107.705 13.5719 106.797 14.0411 105.812 14.3246C105.69 14.3584 105.609 14.4596 105.562 14.625C105.569 14.6925 105.538 14.76 105.471 14.8242C105.329 14.9086 105.221 14.8174 105.154 14.5474C104.995 14.0782 104.843 13.5213 104.701 12.88C104.664 12.7112 104.722 12.6336 104.87 12.6404C105.11 12.664 105.387 12.6741 105.694 12.664C105.822 12.664 105.886 12.5965 105.886 12.4649V4.84009L105.876 4.73883C105.876 4.60381 105.869 4.54644 105.852 4.56332C105.829 4.61394 105.781 4.65107 105.707 4.67469C105.586 4.72532 105.498 4.83333 105.437 5.0021C105.1 5.82904 104.62 6.61548 104.003 7.36142C103.868 7.50318 103.874 7.63482 104.026 7.74958C104.637 8.20187 105.049 8.66091 105.268 9.13007C105.592 9.86588 105.626 10.5949 105.37 11.3139C105.069 11.9248 104.684 12.2995 104.219 12.4412C103.932 12.5087 103.79 12.3568 103.79 11.9889C103.76 11.8067 103.702 11.6413 103.621 11.4995C103.537 11.3578 103.432 11.2497 103.304 11.1721C103.193 11.1215 103.135 11.1687 103.135 11.3105V12.0767L103.169 14.3111C103.23 14.6385 103.074 14.8242 102.707 14.8748C102.308 14.9491 101.991 14.9423 101.758 14.8512C101.674 14.8005 101.63 14.7263 101.623 14.625L101.667 12.8058V4.85358C101.653 4.41817 101.63 4.05365 101.599 3.76337C101.576 3.57098 101.637 3.49334 101.782 3.52372C102.285 3.66548 102.727 3.81063 103.101 3.96252C103.155 3.98614 103.24 3.99964 103.361 3.99964H103.756C103.878 3.99964 104.013 3.92539 104.161 3.7735L104.158 3.77687ZM103.301 4.41818C103.189 4.41818 103.132 4.48568 103.132 4.61732V10.5139C103.132 10.649 103.206 10.7232 103.358 10.7401L103.584 10.7637C103.682 10.7975 103.79 10.757 103.912 10.6388C104.016 10.5139 104.077 10.3519 104.094 10.1494C104.168 9.32921 103.986 8.56977 103.54 7.86771C103.419 7.69895 103.382 7.53356 103.429 7.3648C103.679 6.36909 103.847 5.45776 103.935 4.63081C103.949 4.48905 103.901 4.41818 103.79 4.41818H103.304H103.301ZM107.533 4.4823C107.412 4.4823 107.351 4.54982 107.351 4.68145V5.88642C107.351 6.02143 107.412 6.08556 107.533 6.08556H109.386C109.508 6.08556 109.568 6.01806 109.568 5.88642V4.68145C109.568 4.54644 109.508 4.4823 109.386 4.4823H107.533ZM107.533 6.50072C107.412 6.50072 107.351 6.56823 107.351 6.69986V8.02973C107.351 8.17149 107.412 8.24237 107.533 8.24237H109.386C109.508 8.24237 109.568 8.17487 109.568 8.04323V6.69986C109.568 6.56485 109.508 6.50072 109.386 6.50072H107.533ZM107.611 8.67103C107.452 8.67103 107.375 8.74191 107.375 8.88367V12.421C107.375 12.556 107.449 12.6167 107.601 12.61C107.908 12.5931 108.202 12.556 108.482 12.4986C108.61 12.4648 108.644 12.3805 108.583 12.2488C108.178 11.2464 107.931 10.1292 107.85 8.90056C107.844 8.74867 107.763 8.67441 107.614 8.67441L107.611 8.67103ZM108.434 8.65754C108.306 8.65754 108.262 8.74191 108.299 8.9073C108.458 9.59249 108.704 10.2574 109.045 10.9021C109.13 11.054 109.217 11.0607 109.315 10.9257C109.663 10.3654 109.882 9.83551 109.98 9.33259C110.011 9.20771 109.96 9.13345 109.832 9.10644C109.636 9.06594 109.552 8.96806 109.582 8.81617C109.582 8.70816 109.521 8.65416 109.4 8.65416H108.428L108.434 8.65754Z" fill="#0959A9"/>
<path d="M117.078 4.05361C117.102 3.89498 117.19 3.84097 117.349 3.8916C118.034 4.11774 118.624 4.35064 119.121 4.59366C119.33 4.73542 119.32 4.87381 119.087 5.00882C119.013 5.04258 118.935 5.06282 118.861 5.07295C118.756 5.1067 118.699 5.16071 118.692 5.23496C118.489 5.89652 118.165 6.56145 117.72 7.22976C116.893 8.45161 115.988 9.36968 115.009 9.99074C114.858 10.0819 114.753 10.0886 114.692 10.0042C114.638 9.92998 114.682 9.79835 114.817 9.61608C115.05 9.29881 115.263 8.96465 115.448 8.61363C116.322 6.90911 116.862 5.39022 117.075 4.06036L117.078 4.05361ZM118.692 7.7428C118.722 7.57403 118.81 7.52003 118.952 7.58079C119.637 7.83056 120.197 8.0702 120.633 8.29635C120.798 8.40436 120.882 8.47186 120.882 8.49549C120.896 8.62037 120.842 8.70475 120.714 8.74526L120.535 8.80939C120.413 8.84989 120.315 8.94778 120.241 9.09629C119.789 10.2506 119.023 11.3139 117.939 12.2826C117.811 12.3838 117.814 12.4344 117.949 12.4344H119.293C120.278 12.4176 121.196 12.3602 122.047 12.2589C122.168 12.2522 122.202 12.1746 122.148 12.0328C121.915 11.54 121.612 11.0911 121.233 10.6894C121.068 10.5207 121.014 10.389 121.075 10.2878C121.149 10.1865 121.274 10.1831 121.446 10.2743C122.114 10.6185 122.715 11.0438 123.242 11.5535C124.16 12.4581 124.491 13.3188 124.234 14.139C124.113 14.5406 123.863 14.7533 123.478 14.7803C123.313 14.8039 123.161 14.7836 123.026 14.7161C122.8 14.5474 122.668 14.274 122.631 13.8892C122.587 13.5044 122.526 13.1601 122.449 12.8597C122.411 12.7416 122.327 12.7146 122.199 12.772C120.417 13.5483 118.594 14.031 116.734 14.2132C116.623 14.2301 116.545 14.3077 116.508 14.4529C116.501 14.6047 116.447 14.7128 116.349 14.7803C116.265 14.8039 116.204 14.7938 116.157 14.7431C115.931 14.3482 115.722 13.609 115.526 12.5222C115.489 12.3467 115.546 12.2724 115.695 12.2961C116.079 12.3467 116.515 12.3771 117.004 12.3838C117.126 12.3838 117.227 12.3028 117.308 12.1442C117.976 10.7063 118.435 9.23805 118.685 7.7428H118.692ZM121.267 3.52707C121.402 3.37518 121.5 3.3043 121.561 3.31443C121.72 3.37181 121.979 3.57432 122.341 3.91523C122.523 4.05024 122.594 4.192 122.557 4.34051C122.533 4.40802 122.492 4.4519 122.432 4.4789C122.29 4.53628 122.145 4.60379 122.003 4.67804C121.882 4.74555 121.841 4.86369 121.878 5.02908C122.179 5.76489 122.692 6.41631 123.414 6.98674C124.015 7.4289 124.558 7.68879 125.041 7.76305C125.183 7.78667 125.247 7.85419 125.233 7.9622C125.21 8.08708 125.179 8.15459 125.142 8.16134C125.058 8.19509 124.987 8.26934 124.926 8.38748C124.805 8.61362 124.7 8.94777 124.609 9.38994C124.555 9.63971 124.484 9.81185 124.396 9.90299C124.322 9.94349 124.254 9.94011 124.194 9.88948C123.954 9.79835 123.67 9.57558 123.346 9.22455C122.968 8.82289 122.671 8.43136 122.455 8.04658C121.912 7.03399 121.554 5.89314 121.382 4.62066C121.368 4.4789 121.304 4.40801 121.19 4.40801C120.768 4.40801 120.275 4.43164 119.711 4.48227C119.559 4.49915 119.451 4.4249 119.384 4.25613L119.326 4.06712C119.266 3.90848 119.313 3.84097 119.461 3.86798C119.897 3.95911 120.349 4.00973 120.815 4.01986C120.936 4.01986 121.038 3.93548 121.119 3.77009C121.163 3.68571 121.213 3.60133 121.267 3.52032V3.52707Z" fill="#0959A9"/>
<path d="M133.506 5.29217C133.678 5.1234 133.84 5.08627 133.992 5.18078C134.37 5.54193 134.667 5.86259 134.883 6.14611C135.025 6.30475 135.028 6.43301 134.893 6.53427C134.863 6.55115 134.772 6.5579 134.623 6.5579H129.192C128.862 6.56802 128.527 6.5849 128.187 6.60853C128.021 6.6254 127.9 6.55452 127.825 6.39588C127.819 6.35538 127.802 6.31488 127.782 6.2845C127.697 6.10224 127.728 6.01448 127.873 6.02123C128.497 6.09549 129.078 6.13936 129.611 6.14611H132.183L132.669 6.15961C132.79 6.15961 132.909 6.07523 133.03 5.90984C133.182 5.7107 133.337 5.5048 133.506 5.29554V5.29217ZM136.419 3.37163C136.524 3.22987 136.669 3.2535 136.848 3.44589C137.269 3.76316 137.58 4.04331 137.786 4.28633C137.884 4.42809 137.816 4.58336 137.583 4.75212C137.462 4.87025 137.401 4.99514 137.401 5.12677V13.0418C137.317 14.0375 136.777 14.6417 135.774 14.8611C135.464 14.9792 135.288 14.8813 135.244 14.5708C135.177 14.078 135.052 13.6932 134.873 13.4165C134.701 13.2747 134.417 13.1363 134.026 13.0013C133.844 12.9338 133.763 12.846 133.776 12.738C133.8 12.63 133.884 12.5794 134.036 12.5861C134.471 12.6098 134.913 12.6233 135.356 12.6233C135.565 12.6739 135.703 12.5929 135.761 12.3836V4.75887C135.761 4.6171 135.7 4.54622 135.578 4.54622H129.743C129.351 4.5631 128.963 4.58673 128.578 4.62048C128.406 4.6306 128.288 4.55298 128.227 4.39434L128.183 4.28295C128.109 4.08381 128.146 3.98931 128.295 4.00619C128.956 4.06356 129.57 4.10406 130.134 4.11756H135.45C135.572 4.11756 135.703 4.03656 135.845 3.87792C136.054 3.66866 136.243 3.49651 136.409 3.36487L136.419 3.37163ZM133.202 7.44897C133.287 7.40846 133.435 7.47935 133.655 7.66161C133.925 7.86075 134.181 8.08014 134.421 8.31304C134.562 8.46493 134.515 8.61682 134.272 8.77883C134.151 8.90372 134.09 9.0556 134.09 9.23112C134.09 9.44713 134.097 9.67328 134.114 9.90955V11.0133L134.124 11.7795C134.124 11.9482 134.103 12.0731 134.066 12.1575C133.938 12.2993 133.678 12.3803 133.287 12.3971C132.993 12.4376 132.763 12.4039 132.598 12.2959C132.544 12.2453 132.52 12.1406 132.52 11.982C132.527 11.8638 132.531 11.7423 132.531 11.6174C132.531 11.4487 132.473 11.3677 132.362 11.3677H130.532C130.404 11.3677 130.34 11.4352 130.34 11.5668V12.333C130.303 12.4748 130.212 12.5659 130.07 12.6098C129.665 12.7347 129.277 12.7549 128.905 12.6739C128.801 12.6233 128.747 12.549 128.747 12.4478C128.747 12.0056 128.754 11.5499 128.77 11.0808V8.89697C128.757 8.56956 128.733 8.23879 128.703 7.90463C128.689 7.74599 128.757 7.68187 128.905 7.71562C129.388 7.8405 129.878 7.98901 130.374 8.1544H132.281C132.392 8.1544 132.52 8.07677 132.666 7.91476C132.875 7.69874 133.054 7.54348 133.195 7.44897H133.202ZM130.526 8.58982C130.397 8.58982 130.333 8.65732 130.333 8.78896V10.7331C130.333 10.8749 130.394 10.9458 130.516 10.9458H132.355C132.477 10.9458 132.537 10.8783 132.537 10.7466V8.80246C132.537 8.6607 132.48 8.58982 132.369 8.58982H130.529H130.526Z" fill="#0959A9"/>
<path d="M35.3054 18.0713H35.9737V23.1984H38.1845V23.8194H35.3054V18.0713Z" fill="#0959A9"/>
<path d="M39.8418 22.0132L39.3051 23.8223H38.6132L40.3717 18.0742H41.1784L42.9436 23.8223H42.2315L41.6779 22.0132H39.8451H39.8418ZM41.5362 21.4326L41.0299 19.7787C40.9151 19.4041 40.8375 19.0632 40.7598 18.729H40.743C40.6653 19.0699 40.581 19.421 40.4831 19.7686L39.9768 21.4326H41.5362Z" fill="#0959A9"/>
<path d="M43.5782 18.1387C43.9023 18.078 44.3242 18.0273 44.8609 18.0273C45.5224 18.0273 46.0051 18.1961 46.3122 18.5066C46.5958 18.78 46.7645 19.1986 46.7645 19.7082C46.7645 20.2179 46.6261 20.6364 46.3662 20.9368C46.0152 21.3554 45.438 21.568 44.7866 21.568C44.5875 21.568 44.4018 21.5579 44.2499 21.5174V23.8193H43.5816V18.1387H43.5782ZM44.2466 20.9098C44.3917 20.9537 44.5773 20.9706 44.8001 20.9706C45.6068 20.9706 46.0962 20.5352 46.0962 19.742C46.0962 18.9488 45.6135 18.6147 44.8744 18.6147C44.5841 18.6147 44.3613 18.6416 44.2466 18.6754V20.9098Z" fill="#0959A9"/>
<path d="M53.6501 21.2947C53.613 20.4914 53.5658 19.5294 53.5725 18.8139H53.5489C53.3734 19.4889 53.1573 20.2045 52.8974 20.9977L51.9827 23.7857H51.4764L50.6394 21.0483C50.393 20.2382 50.1871 19.4957 50.042 18.8139H50.0251C50.0116 19.5294 49.9711 20.4947 49.9272 21.3554L49.7888 23.8194H49.1509L49.512 18.0713H50.3626L51.2436 20.8525C51.4596 21.5613 51.6351 22.1925 51.7667 22.7899H51.7904C51.922 22.2094 52.1043 21.5782 52.3338 20.8525L53.2552 18.0713H54.1058L54.4298 23.8194H53.7784L53.6468 21.2947H53.6501Z" fill="#0959A9"/>
<path d="M56.0769 18.0713V23.8194H55.4086V18.0713H56.0769Z" fill="#0959A9"/>
<path d="M57.1637 23.8189V18.0708H57.8928L59.5501 20.9803C59.9348 21.6553 60.2319 22.2595 60.4783 22.8468L60.4918 22.8367C60.431 22.0705 60.4141 21.3684 60.4141 20.474V18.0674H61.0419V23.8155H60.3669L58.7231 20.8992C58.362 20.2579 58.0177 19.6031 57.7544 18.9787L57.7308 18.9888C57.7679 19.7145 57.7848 20.4031 57.7848 21.3583V23.8155H57.157L57.1637 23.8189Z" fill="#0959A9"/>
<path d="M66.0982 23.566C65.7978 23.6841 65.2071 23.8799 64.5084 23.8799C63.7253 23.8799 63.0807 23.6571 62.5744 23.1205C62.1288 22.6412 61.8521 21.875 61.8521 20.9805C61.8588 19.2659 62.9186 18.0137 64.6535 18.0137C65.251 18.0137 65.7201 18.1588 65.9429 18.2769L65.7809 18.8811C65.5041 18.7461 65.1598 18.6347 64.6367 18.6347C63.3777 18.6347 62.5575 19.5055 62.5575 20.9468C62.5575 22.388 63.3473 23.2656 64.5523 23.2656C64.9911 23.2656 65.2881 23.1981 65.4434 23.1104V21.3957H64.3903V20.7983H66.0948V23.5626L66.0982 23.566Z" fill="#0959A9"/>
<path d="M71.4244 21.1259H69.4127V23.1984H71.6539V23.8194H68.7444V18.0713H71.5391V18.6923H69.4127V20.5082H71.4244V21.1225V21.1259Z" fill="#0959A9"/>
<path d="M72.3795 23.8189V18.0708H73.1086L74.7659 20.9803C75.1507 21.6553 75.4477 22.2595 75.6941 22.8468L75.7076 22.8367C75.6468 22.0705 75.6299 21.3684 75.6299 20.474V18.0674H76.2578V23.8155H75.5827L73.9389 20.8992C73.5778 20.2579 73.2335 19.6031 72.9702 18.9787L72.9466 18.9888C72.9837 19.7145 73.0006 20.4031 73.0006 21.3583V23.8155H72.3728L72.3795 23.8189Z" fill="#0959A9"/>
<path d="M81.3139 23.566C81.0135 23.6841 80.4228 23.8799 79.7241 23.8799C78.941 23.8799 78.2963 23.6571 77.7901 23.1205C77.3445 22.6412 77.0677 21.875 77.0677 20.9805C77.0745 19.2659 78.1343 18.0137 79.8692 18.0137C80.4667 18.0137 80.9358 18.1588 81.1586 18.2769L80.9966 18.8811C80.7198 18.7461 80.3755 18.6347 79.8524 18.6347C78.5934 18.6347 77.7732 19.5055 77.7732 20.9468C77.7732 22.388 78.563 23.2656 79.768 23.2656C80.2068 23.2656 80.5038 23.1981 80.659 23.1104V21.3957H79.606V20.7983H81.3105V23.5626L81.3139 23.566Z" fill="#0959A9"/>
<path d="M82.9677 18.0713V23.8194H82.2994V18.0713H82.9677Z" fill="#0959A9"/>
<path d="M84.0546 23.8189V18.0708H84.7837L86.4409 20.9803C86.8257 21.6553 87.1227 22.2595 87.3691 22.8468L87.3826 22.8367C87.3219 22.0705 87.305 21.3684 87.305 20.474V18.0674H87.9328V23.8155H87.2577L85.614 20.8992C85.2528 20.2579 84.9086 19.6031 84.6453 18.9787L84.6217 18.9888C84.6588 19.7145 84.6757 20.4031 84.6757 21.3583V23.8155H84.0479L84.0546 23.8189Z" fill="#0959A9"/>
<path d="M91.7165 21.1259H89.7048V23.1984H91.946V23.8194H89.0365V18.0713H91.8312V18.6923H89.7048V20.5082H91.7165V21.1225V21.1259Z" fill="#0959A9"/>
<path d="M95.3483 21.1259H93.3366V23.1984H95.5778V23.8194H92.6683V18.0713H95.4631V18.6923H93.3366V20.5082H95.3483V21.1225V21.1259Z" fill="#0959A9"/>
<path d="M96.3035 18.1484C96.641 18.0708 97.1237 18.0303 97.5861 18.0303C98.3016 18.0303 98.7607 18.1754 99.0813 18.4994C99.3412 18.756 99.4897 19.1475 99.4897 19.5897C99.4897 20.3491 99.0611 20.852 98.5143 21.0579V21.0849C98.9126 21.2402 99.1522 21.6486 99.2737 22.246C99.4425 23.0493 99.564 23.6029 99.672 23.8223H98.9801C98.8957 23.6602 98.7809 23.1641 98.6358 22.4485C98.4805 21.6553 98.2071 21.3583 97.5996 21.3313H96.9718V23.8223H96.3035V18.1518V18.1484ZM96.9718 20.7676H97.6536C98.3658 20.7676 98.8214 20.3322 98.8214 19.6774C98.8214 18.9349 98.3388 18.6108 97.6333 18.6041C97.3093 18.6041 97.0798 18.6378 96.9718 18.6716V20.771V20.7676Z" fill="#0959A9"/>
<path d="M101.073 18.0713V23.8194H100.405V18.0713H101.073Z" fill="#0959A9"/>
<path d="M102.16 23.8189V18.0708H102.889L104.546 20.9803C104.931 21.6553 105.228 22.2595 105.474 22.8468L105.488 22.8367C105.427 22.0705 105.41 21.3684 105.41 20.474V18.0674H106.038V23.8155H105.363L103.719 20.8992C103.358 20.2579 103.014 19.6031 102.75 18.9787L102.727 18.9888C102.764 19.7145 102.781 20.4031 102.781 21.3583V23.8155H102.153L102.16 23.8189Z" fill="#0959A9"/>
<path d="M111.097 23.566C110.797 23.6841 110.206 23.8799 109.508 23.8799C108.725 23.8799 108.08 23.6571 107.574 23.1205C107.128 22.6412 106.851 21.875 106.851 20.9805C106.858 19.2659 107.918 18.0137 109.653 18.0137C110.25 18.0137 110.719 18.1588 110.942 18.2769L110.78 18.8811C110.503 18.7461 110.159 18.6347 109.636 18.6347C108.377 18.6347 107.557 19.5055 107.557 20.9468C107.557 22.388 108.347 23.2656 109.552 23.2656C109.99 23.2656 110.287 23.1981 110.443 23.1104V21.3957H109.39V20.7983H111.094V23.5626L111.097 23.566Z" fill="#0959A9"/>
<path d="M117.359 23.6336C117.112 23.7686 116.623 23.907 115.992 23.907C114.533 23.907 113.437 22.8843 113.437 20.9975C113.437 19.1107 114.533 17.98 116.137 17.98C116.781 17.98 117.19 18.1319 117.365 18.2365L117.203 18.8407C116.95 18.7057 116.589 18.601 116.16 18.601C114.949 18.601 114.142 19.4617 114.142 20.9739C114.142 22.3813 114.871 23.2859 116.13 23.2859C116.538 23.2859 116.95 23.1914 117.22 23.0463L117.359 23.6336Z" fill="#0959A9"/>
<path d="M122.287 20.8861C122.287 22.864 121.203 23.9137 119.883 23.9137C118.564 23.9137 117.558 22.7358 117.558 20.9975C117.558 19.1715 118.577 17.98 119.961 17.98C121.345 17.98 122.287 19.1816 122.287 20.8895V20.8861ZM118.273 20.9806C118.273 22.2092 118.871 23.3095 119.924 23.3095C120.977 23.3095 121.581 22.2261 121.581 20.9199C121.581 19.7756 121.044 18.5841 119.931 18.5841C118.817 18.5841 118.273 19.7183 118.273 20.9806Z" fill="#0959A9"/>
<path d="M122.722 23.377C122.722 23.0631 122.914 22.8403 123.181 22.8403C123.448 22.8403 123.633 23.0631 123.633 23.377C123.633 23.6909 123.458 23.9137 123.174 23.9137C122.904 23.9137 122.722 23.6842 122.722 23.377Z" fill="#0959A9"/>
<path d="M124.008 24.8691C124.177 24.3662 124.382 23.4515 124.467 22.8305L125.22 22.7461C125.044 23.4718 124.706 24.4169 124.49 24.8185L124.008 24.8691Z" fill="#0959A9"/>
<path d="M127.684 18.0713H128.352V23.1984H130.563V23.8194H127.684V18.0713Z" fill="#0959A9"/>
<path d="M131.663 18.7025H130.09V18.0713H133.918V18.7025H132.338V23.8194H131.663V18.7025Z" fill="#0959A9"/>
<path d="M134.461 18.1484C134.869 18.0809 135.352 18.0303 135.882 18.0303C136.841 18.0303 137.526 18.2767 137.978 18.7458C138.437 19.215 138.707 19.8799 138.707 20.8115C138.707 21.7431 138.447 22.516 137.961 23.0459C137.479 23.5826 136.679 23.8729 135.673 23.8729C135.197 23.8729 134.799 23.8459 134.461 23.8054V18.1518V18.1484ZM135.129 23.2316C135.298 23.2653 135.545 23.2755 135.804 23.2755C137.232 23.2755 138.005 22.3878 138.005 20.8351C138.012 19.4783 137.323 18.6176 135.909 18.6176C135.565 18.6176 135.302 18.6513 135.126 18.6952V23.2316H135.129Z" fill="#0959A9"/>
<path d="M139.089 23.377C139.089 23.0631 139.281 22.8403 139.548 22.8403C139.814 22.8403 140 23.0631 140 23.377C140 23.6909 139.824 23.9137 139.541 23.9137C139.271 23.9137 139.089 23.6842 139.089 23.377Z" fill="#0959A9"/>
<path d="M7.08129 2.46028L12.1881 1.48145L6.09571 19.4548L0.458984 20.5788L7.08129 2.46028Z" fill="#0959A9"/>
<path d="M0 21.2774L4.67814 25.9522L26.7795 21.3179L22.1925 16.7275L0 21.2774Z" fill="#0959A9"/>
<path d="M22.5908 16.3326L27.3635 21.1053L32.504 6.41943C32.504 6.41943 32.3859 5.7815 31.91 5.30558L27.4951 1.32275C27.4951 1.32275 27.3668 3.53019 26.8876 4.69804C26.4116 5.86589 22.5908 16.3326 22.5908 16.3326Z" fill="#363A36"/>
<path d="M24.9804 6.68616L26.2867 2.95985C26.2867 2.95985 27.0123 1.27221 26.1044 0.536401C25.1964 -0.199411 24.1569 -0.287169 22.2093 0.968437C20.2618 2.22404 17.5345 11.2732 17.5345 11.2732L19.3437 13.0823L21.9494 6.51402C21.9494 6.51402 22.4557 4.48885 23.4649 5.3428C24.4741 6.19675 24.9804 6.68616 24.9804 6.68616Z" fill="#363A36"/>
<path d="M18.878 13.916L16.8866 11.9246L15.874 12.1643L17.9599 5.68711C17.9599 5.68711 18.9219 2.95988 16.1947 2.91938C13.4674 2.8755 12.4278 6.1664 12.4278 6.1664L8.48889 16.7749L10.2643 18.5503L13.2244 17.9293L11.5401 16.245C11.5401 16.245 10.7706 15.5936 11.4051 14.1523C12.0397 12.7111 13.9467 7.68865 13.9467 7.68865C13.9467 7.68865 14.4699 5.866 15.172 6.11577C15.172 6.11577 16.2655 6.1799 15.6512 7.48951C15.0369 8.79912 13.4269 13.2309 13.4269 13.2309C13.4269 13.2309 13.0793 15.3944 14.8986 15.5699C16.7178 15.7421 18.3177 14.4865 18.8814 13.9262L18.878 13.916Z" fill="#363A36"/>
</svg>
