<svg width="733" height="586" viewBox="0 0 733 586" fill="none" xmlns="http://www.w3.org/2000/svg">
<path d="M159.692 55.4825L274.856 33.3327L137.466 438.728L10.3518 464.075L159.692 55.4825Z" fill="#231815" fill-opacity="0.02"/>
<path d="M0 479.83L105.497 585.251L603.907 480.744L500.465 377.225L0 479.83Z" fill="#231815" fill-opacity="0.02"/>
<path d="M509.446 368.244L617.075 475.873L733 144.691C733 144.691 730.336 130.305 719.603 119.573L620.043 29.7553C620.043 29.7553 617.151 79.5353 606.342 105.872C595.534 132.208 509.446 368.244 509.446 368.244Z" fill="#231815" fill-opacity="0.02"/>
<path d="M563.337 150.78L592.794 66.7479C592.794 66.7479 609.159 28.6898 588.684 12.0964C568.208 -4.49693 544.764 -6.47596 500.845 21.8393C456.926 50.1546 395.424 254.222 395.424 254.222L436.223 295.021L494.984 146.898C494.984 146.898 506.402 101.229 529.161 120.486C551.919 139.743 563.337 150.78 563.337 150.78Z" fill="#231815" fill-opacity="0.02"/>
<path d="M425.718 313.822L380.81 268.913L357.975 274.317L405.015 128.25C405.015 128.25 426.708 66.7483 365.206 65.8349C303.704 64.8454 280.26 139.059 280.26 139.059L191.432 378.292L231.47 418.33L298.224 404.324L260.242 366.342C260.242 366.342 242.887 351.652 257.197 319.15C271.507 286.648 314.513 173.387 314.513 173.387C314.513 173.387 326.311 132.284 342.143 137.917C342.143 137.917 366.804 139.363 352.951 168.896C339.098 198.43 302.791 298.37 302.791 298.37C302.791 298.37 294.951 347.161 335.977 351.119C377.004 355.001 413.083 326.686 425.795 314.05L425.718 313.822Z" fill="#231815" fill-opacity="0.02"/>
</svg>
